# xmcd
#
# Track frame offsets:
#	150
#	7594
#	14369
#	22448
#	35548
#	45156
#	55898
#	66102
#	76756
#	92229
#	101632
#	113784
#	124668
#	140581
#	153908
#	173585
#	182581
#	195493
#	206735
#	221433
#	235882
#	249610
#	261378
#	269968
#	282453
#	303172
#	314588
#	323087
#	332918
#
# Disc length: 4592 seconds
#
# Revision: 1
# Processed by: cddbd v1.5.1PL2 Copyright (c) Steve Scherf et al.
# Submitted via: audiograbber 1.83.01
#
DISCID=a011ee1d
DTITLE=Diverse - Tanz Musik in Super Strasse
DYEAR=1900
DGENRE=
TTITLE0=Hello Dolly
TTITLE1=La Cucaracha
TTITLE2=Jambalaya
TTITLE3=Sweet Leilani
TTITLE4=Chim Chim Chim ee aus Mary popins
TTITLE5=Opus One
TTITLE6=El Manicero
TTITLE7=Puppet On A String
TTITLE8=Schiwago Melodie
TTITLE9=Die Zwei glorreichen Halunken
TTITLE10=La Bamba
TTITLE11=Soul Serendae
TTITLE12=Lady Be Good
TTITLE13=American Patrol
TTITLE14=Two O Clock Jump
TTITLE15=In A little Spanish Town
TTITLE16=By The Sleepy Lagoon
TTITLE17=Lover
TTITLE18=In the Still of the Night
TTITLE19=Love is Blue
TTITLE20=La Bamba
TTITLE21=Mack the Knife
TTITLE22=Sevillanas
TTITLE23=Malaguena
TTITLE24=Zorbas Dance
TTITLE25=Summertime
TTITLE26=La Danza
TTITLE27=Cest si bon
TTITLE28=Winchester Cathedral
EXTD=
EXTT0=
EXTT1=
EXTT2=
EXTT3=
EXTT4=
EXTT5=
EXTT6=
EXTT7=
EXTT8=
EXTT9=
EXTT10=
EXTT11=
EXTT12=
EXTT13=
EXTT14=
EXTT15=
EXTT16=
EXTT17=
EXTT18=
EXTT19=
EXTT20=
EXTT21=
EXTT22=
EXTT23=
EXTT24=
EXTT25=
EXTT26=
EXTT27=
EXTT28=
PLAYORDER=
